<?xml version="1.0" standalone="no"?>
<!DOCTYPE svg PUBLIC "-//W3C//DTD SVG 20010904//EN"
 "http://www.w3.org/TR/2001/REC-SVG-20010904/DTD/svg10.dtd">
<svg version="1.0" xmlns="http://www.w3.org/2000/svg"
 width="702.000000pt" height="702.000000pt" viewBox="0 0 702.000000 702.000000"
 preserveAspectRatio="xMidYMid meet">

<g transform="translate(0.000000,702.000000) scale(0.100000,-0.100000)"
fill="#000000" stroke="none">
<path d="M0 3510 l0 -3510 3510 0 3510 0 0 3510 0 3510 -3510 0 -3510 0 0
-3510z m3573 3054 c29 -28 71 -66 95 -84 58 -44 204 -106 272 -114 71 -9 224
-47 370 -93 158 -49 381 -134 375 -144 -3 -4 0 -11 6 -15 8 -4 9 -3 5 4 -4 7
-5 12 -1 12 14 0 285 -147 330 -180 81 -57 135 -124 116 -143 -14 -14 -41 -1
-128 62 -98 72 -263 162 -406 222 -67 28 -131 56 -142 62 -11 6 -24 10 -28 9
-5 -1 -50 11 -101 27 -115 37 -258 73 -401 101 -86 17 -126 31 -184 63 -84 48
-201 158 -232 219 l-21 41 -30 -53 c-36 -64 -95 -124 -174 -177 -90 -61 -112
-70 -219 -88 -408 -69 -754 -201 -1067 -409 -133 -88 -165 -95 -126 -25 12 22
32 46 43 51 11 6 22 14 25 18 10 15 218 132 330 186 265 127 460 192 740 244
121 22 201 49 261 86 20 13 40 20 43 17 3 -4 6 -2 6 4 0 6 20 23 44 37 25 14
61 46 81 70 20 24 43 43 51 42 8 -1 38 -25 67 -52z m104 -334 c154 -12 302
-34 421 -61 74 -18 92 -26 92 -40 0 -25 17 -33 28 -13 8 15 14 15 68 0 293
-84 681 -300 860 -480 17 -17 72 -67 123 -111 160 -137 313 -308 512 -572 185
-245 322 -559 388 -888 41 -203 51 -289 58 -500 8 -236 -18 -479 -74 -693 -19
-75 -29 -75 -14 0 7 30 14 68 17 84 3 16 10 49 15 74 6 25 12 70 14 100 2 30
7 87 10 125 8 99 8 98 7 118 -1 10 -6 16 -11 13 -5 -3 -11 3 -14 14 -3 13 0
20 8 20 20 0 22 9 16 75 -4 37 -11 60 -18 61 -26 3 -28 5 -9 19 15 12 17 19 8
44 -7 19 -7 33 -1 36 5 4 9 14 9 23 -1 15 -2 15 -13 2 -7 -9 -20 -14 -30 -12
-15 3 -18 0 -12 -18 5 -15 4 -20 -4 -16 -6 4 -11 3 -11 -1 0 -5 9 -14 20 -21
29 -18 25 -32 -9 -32 -27 0 -30 3 -33 38 -2 30 -7 38 -27 40 -13 2 -21 0 -17
-6 3 -5 0 -12 -8 -15 -8 -3 -17 0 -20 8 -6 16 19 39 34 30 5 -3 17 1 26 10 14
14 15 20 4 41 -10 18 -11 30 -3 47 9 19 8 26 -8 35 -23 14 -25 42 -4 42 8 0
15 -7 15 -15 0 -8 5 -15 10 -15 6 0 10 7 10 16 0 8 5 12 10 9 6 -3 10 -1 10 4
0 6 7 11 16 11 11 0 14 8 12 32 -2 17 -8 33 -14 35 -17 6 -44 -25 -38 -42 4
-10 0 -15 -11 -15 -12 0 -15 5 -11 18 5 12 1 11 -11 -5 -17 -21 -19 -21 -39
-5 -11 10 -19 23 -16 30 2 6 -1 12 -7 12 -6 0 -11 7 -11 15 0 8 5 15 10 15 6
0 10 7 10 15 0 8 -7 15 -15 15 -8 0 -15 9 -15 20 0 11 5 20 10 20 6 0 10 -7
10 -15 0 -8 5 -15 11 -15 12 0 1 42 -14 52 -6 3 -16 4 -24 1 -7 -3 -13 0 -13
6 0 6 3 10 8 8 4 -1 7 3 7 8 0 6 -9 9 -19 7 -11 -1 -17 1 -13 4 4 4 2 13 -4
21 -9 10 -8 13 5 13 9 0 16 6 14 13 -2 6 0 12 3 12 3 0 12 5 20 11 8 6 27 14
43 18 23 6 27 4 23 -8 -7 -18 6 -28 26 -20 18 7 16 29 -7 77 -17 33 -22 37
-58 37 -22 0 -37 -4 -33 -9 9 -16 -12 -22 -39 -11 -16 6 -24 15 -20 23 3 8 -2
21 -10 30 -9 9 -16 23 -16 32 0 8 -6 18 -14 21 -8 3 -18 22 -22 42 -4 20 -8
40 -9 45 -2 4 -3 11 -4 15 0 5 -12 22 -26 38 -14 16 -25 39 -25 52 0 12 -4 22
-10 22 -5 0 -18 17 -28 38 -10 20 -45 83 -76 140 -48 84 -56 105 -46 117 12
15 10 17 -20 19 -8 1 -16 10 -18 22 -2 12 -21 40 -43 64 -22 23 -49 60 -60 81
-12 25 -24 36 -33 33 -13 -5 -44 38 -47 63 -2 18 -42 63 -55 63 -14 0 -151
129 -170 161 -5 8 -36 35 -69 60 -33 24 -62 46 -65 49 -24 24 -174 129 -250
175 -94 57 -320 175 -335 175 -4 0 -44 17 -89 37 -172 78 -484 148 -781 175
-178 16 -491 -16 -702 -73 -76 -20 -123 -22 -135 -4 -5 6 -13 3 -21 -10 -11
-13 -26 -19 -53 -18 -22 1 -51 -6 -65 -14 -28 -17 -65 -11 -53 8 4 7 -1 10
-12 7 -11 -2 -19 -8 -19 -15 0 -20 -12 -24 -25 -8 -7 8 -20 15 -29 15 -19 0
-88 23 -97 33 -11 10 -54 8 -54 -2 0 -5 9 -12 19 -16 21 -6 22 -23 3 -46 -7
-8 -20 -25 -31 -38 l-18 -25 -27 29 c-25 27 -28 28 -43 12 -16 -16 -16 -17 10
-17 30 0 32 -3 17 -31 -8 -13 -7 -19 0 -19 6 0 8 -5 4 -11 -5 -9 4 -10 32 -5
30 5 35 4 22 -4 -10 -6 -18 -18 -18 -25 0 -8 -5 -15 -11 -15 -5 0 -7 -5 -4
-10 3 -6 -1 -13 -10 -17 -10 -3 -27 -15 -40 -27 -23 -21 -135 -88 -135 -81 0
2 -3 10 -6 19 -4 12 0 16 15 16 11 0 26 9 33 19 6 10 17 17 23 14 7 -2 15 2
17 9 4 9 -4 14 -24 15 -22 2 -28 -2 -26 -15 2 -12 -3 -16 -19 -15 -13 2 -23
-2 -23 -7 0 -14 -38 -12 -42 2 -3 7 -12 4 -27 -11 -19 -19 -20 -25 -9 -38 10
-13 8 -19 -14 -38 -20 -17 -23 -25 -13 -28 7 -3 16 1 19 9 3 9 11 12 16 9 12
-8 -48 -65 -68 -65 -7 0 -19 -6 -27 -12 -35 -35 -57 -48 -76 -48 -11 0 -18 4
-15 9 3 5 -1 14 -8 20 -11 10 -23 8 -55 -9 -38 -19 -43 -19 -65 -4 -14 8 -23
21 -20 29 8 19 175 173 284 260 252 202 609 366 959 439 265 56 506 74 738 56z
m-1842 -290 c-10 -19 -15 -51 -14 -83 1 -33 -4 -64 -14 -84 -10 -18 -17 -44
-17 -59 0 -22 -3 -24 -14 -15 -20 17 -59 -37 -45 -62 12 -21 1 -46 -11 -26 -7
10 -11 10 -24 0 -12 -10 -16 -9 -25 8 -27 50 -5 151 47 211 29 35 36 39 50 28
13 -11 15 -10 9 10 -4 18 3 33 30 63 43 47 49 49 28 9z m1709 -33 c21 -44 54
-86 115 -147 l86 -85 0 -102 c0 -114 10 -137 79 -183 34 -22 36 -26 21 -37
-14 -10 -22 -9 -41 4 -22 14 -24 14 -24 -1 0 -9 7 -16 16 -16 8 0 12 -5 9 -10
-7 -11 -66 18 -62 30 1 3 -15 23 -36 45 -21 21 -35 45 -33 52 3 7 -7 21 -22
30 -15 10 -44 31 -64 47 -30 23 -43 27 -70 22 -46 -9 -148 -59 -148 -72 0 -6
-9 -22 -21 -35 -11 -13 -29 -34 -40 -46 -10 -13 -28 -23 -40 -23 -12 0 -23 -8
-26 -19 -6 -24 -34 -32 -56 -16 -15 11 -12 17 28 58 54 57 68 102 59 195 l-7
70 68 64 c66 61 165 196 165 224 0 29 16 11 44 -49z m1772 -123 c30 -51 40
-120 24 -168 -10 -30 -16 -36 -40 -36 -50 0 -97 98 -55 114 8 3 15 10 15 16 0
5 -7 10 -15 10 -8 0 -15 -5 -15 -12 0 -20 -13 0 -40 66 -23 53 -24 63 -11 62
10 -1 20 11 26 32 l9 32 39 -37 c21 -21 50 -56 63 -79z m-2746 96 c0 -5 -5
-10 -11 -10 -5 0 -7 5 -4 10 3 6 8 10 11 10 2 0 4 -4 4 -10z m-95 -68 c-28
-11 -38 -12 -50 -2 -23 19 -18 33 10 26 18 -5 27 -2 31 9 6 14 9 14 26 -2 18
-16 18 -17 -17 -31z m3015 -32 c8 -5 11 -10 5 -10 -5 0 -17 5 -25 10 -8 5 -10
10 -5 10 6 0 17 -5 25 -10z m-1567 -66 c122 -31 265 -120 406 -251 123 -114
210 -237 261 -369 37 -94 32 -280 -9 -343 -8 -12 -13 -11 -28 8 -17 21 -21 22
-35 8 -8 -9 -24 -13 -35 -11 -14 4 -29 -3 -46 -20 -43 -43 -107 -30 -194 41
-46 37 -51 36 -29 -5 17 -32 56 -156 56 -177 0 -8 5 -15 11 -15 5 0 7 -4 4
-10 -3 -5 3 -15 15 -22 11 -7 20 -20 20 -30 0 -12 7 -16 28 -14 15 2 30 -1 33
-7 4 -5 15 -7 25 -3 11 4 56 9 101 10 103 4 172 35 238 108 50 56 56 79 23
102 -32 23 -35 21 -41 -25 -6 -49 -26 -72 -92 -110 -72 -42 -144 -40 -268 4
-27 10 -54 39 -93 102 -18 29 -17 28 25 -8 66 -59 134 -87 212 -87 113 0 199
37 199 85 0 33 -22 48 -54 35 -41 -15 -44 -12 -9 11 23 15 40 40 60 88 l28 69
28 -24 c19 -16 41 -24 65 -24 20 0 44 -4 52 -10 11 -7 9 -11 -13 -19 -16 -6
-32 -11 -35 -11 -4 0 -18 -7 -30 -16 l-22 -15 21 -30 c57 -81 -46 -211 -206
-261 -57 -17 -96 -22 -209 -22 l-139 -1 -27 67 c-83 204 -180 318 -384 453
-144 95 -198 143 -278 250 l-45 60 21 17 21 17 -22 7 c-20 5 -22 12 -18 50 2
24 0 44 -4 44 -10 0 -33 -49 -27 -59 3 -4 1 -13 -4 -21 -5 -8 -3 -22 7 -36 13
-21 11 -27 -40 -96 -69 -93 -144 -162 -235 -216 -121 -72 -216 -150 -269 -220
-57 -74 -115 -176 -149 -259 l-22 -55 -153 1 c-124 2 -164 6 -212 22 -76 26
-140 69 -178 121 -29 41 -39 75 -17 62 8 -5 10 3 6 27 -4 22 -1 42 8 53 19 27
4 42 -64 62 l-57 17 78 17 c47 10 82 24 90 35 12 15 16 11 37 -46 12 -35 35
-76 51 -92 26 -26 27 -28 6 -21 -12 4 -32 7 -44 6 -11 -1 -24 5 -27 14 -7 19
-40 3 -57 -27 -34 -65 79 -174 201 -194 25 -4 51 -12 58 -18 9 -7 16 -7 20 0
10 15 63 22 82 10 18 -10 110 10 110 24 0 4 8 5 18 2 10 -2 24 3 31 11 9 11
10 16 2 17 -26 3 -30 4 -38 13 -5 5 1 7 15 3 16 -4 28 2 42 20 19 24 19 27 3
38 -15 11 -15 15 5 43 27 38 28 51 2 27 -20 -18 -20 -18 -5 16 9 19 22 46 30
62 16 32 7 35 -26 8 -46 -35 -88 -51 -139 -51 -27 0 -50 -4 -50 -10 0 -20 -21
-10 -30 15 -9 25 -50 42 -69 30 -6 -3 -11 1 -11 10 0 14 8 16 40 13 28 -2 40
0 40 9 0 7 -4 13 -10 13 -5 0 -7 7 -4 15 4 10 0 15 -14 15 -13 0 -26 12 -36
35 -14 28 -23 35 -46 35 -34 0 -38 -11 -13 -35 14 -14 14 -18 2 -26 -12 -7
-12 -9 1 -9 12 0 12 -2 2 -9 -12 -7 -11 -14 2 -39 18 -34 21 -62 7 -62 -5 0
-18 21 -28 48 -13 35 -18 74 -18 152 0 92 3 114 28 175 44 107 131 229 247
346 149 150 298 247 405 263 l40 7 -50 -21 c-101 -43 -145 -93 -126 -143 13
-34 37 -35 45 -2 8 30 17 31 41 5 11 -12 31 -20 49 -20 40 0 58 -12 50 -33 -3
-10 -1 -24 6 -32 10 -12 9 -22 -4 -50 -9 -19 -23 -35 -31 -35 -7 0 -33 18 -57
40 -23 21 -58 47 -75 57 -18 10 -33 21 -33 25 0 5 -7 8 -15 8 -8 0 -15 9 -15
20 0 23 -18 27 -26 6 -3 -8 -19 -19 -35 -25 -30 -10 -40 -31 -14 -31 8 0 15
-4 15 -10 0 -5 -7 -10 -15 -10 -30 0 -40 -55 -15 -84 8 -11 17 -12 39 -3 92
34 207 -88 187 -197 -10 -52 -66 -106 -112 -106 -39 0 -58 26 -31 42 26 14 21
61 -9 89 -22 20 -36 24 -89 24 -56 0 -68 -4 -101 -31 -47 -38 -98 -129 -113
-201 -14 -72 -15 -183 0 -183 47 0 402 178 549 276 129 85 184 136 275 254 43
55 81 100 84 100 4 0 36 -36 71 -80 83 -107 211 -226 312 -293 120 -79 482
-257 524 -257 4 0 4 48 2 108 -3 91 -8 116 -31 167 -34 73 -60 102 -112 126
-74 34 -148 19 -173 -34 -12 -24 -11 -32 3 -53 24 -36 13 -54 -33 -54 -51 0
-101 50 -109 108 -14 105 77 213 169 198 21 -3 38 -3 39 1 5 45 5 113 0 114
-3 0 -33 2 -66 5 -55 3 -62 1 -79 -21 -10 -14 -24 -25 -31 -25 -6 0 -20 -9
-31 -21 -12 -14 -25 -18 -41 -14 -13 3 -23 2 -22 -2 7 -45 -17 -42 -36 4 -11
27 -12 38 -4 44 7 4 9 17 5 32 -7 28 7 37 58 37 20 0 40 8 51 20 21 23 35 26
35 6 0 -19 29 -48 43 -43 16 5 16 49 0 84 -18 38 -55 63 -144 97 -75 29 -71
32 14 10z m1659 -59 c61 -7 92 -2 198 31 23 7 24 6 10 -11 -8 -9 -13 -30 -12
-45 2 -15 -4 -65 -14 -111 -25 -125 -59 -191 -112 -219 -29 -15 -42 -5 -17 14
13 9 16 19 10 32 -4 10 -7 24 -6 29 2 6 5 18 7 29 2 10 13 25 24 33 11 8 20
21 20 28 0 8 9 29 20 47 11 18 20 39 20 47 0 21 -24 -3 -67 -67 -37 -56 -37
-56 -44 -28 -4 15 -13 34 -19 41 -14 16 -5 35 15 35 22 0 86 38 122 73 41 38
35 47 -9 14 -55 -41 -93 -56 -167 -67 -80 -11 -96 -8 -106 23 -7 23 -9 20 -19
-26 -7 -29 -39 -67 -56 -67 -6 0 2 18 16 40 36 54 43 119 16 163 l-20 34 63
-32 c42 -22 84 -35 127 -40z m-3989 27 c-15 -27 -16 -36 -5 -84 7 -29 15 -64
18 -78 l5 -25 -19 22 c-11 12 -22 40 -26 62 -6 40 -18 52 -32 30 -4 -8 -9 -8
-17 0 -14 14 -60 15 -52 1 3 -5 1 -10 -6 -10 -9 0 -9 -3 0 -14 7 -8 8 -17 3
-20 -15 -9 -106 18 -153 46 -40 25 -99 73 -99 83 0 2 21 -6 48 -17 35 -16 68
-22 132 -22 75 -1 93 3 150 30 36 17 66 30 68 29 1 -1 -5 -16 -15 -33z m-330
21 c-7 -2 -19 -2 -25 0 -7 3 -2 5 12 5 14 0 19 -2 13 -5z m85 -153 c7 0 15 -7
19 -16 3 -9 14 -19 24 -22 12 -5 15 -12 10 -20 -14 -23 -60 -2 -88 40 -18 27
-29 35 -34 26 -10 -16 -13 -12 -33 47 l-16 50 53 -53 c29 -28 58 -52 65 -52z
m-48 -47 c0 -7 7 -13 16 -13 9 0 14 -3 12 -7 -2 -5 -10 -20 -17 -36 -17 -34
-8 -46 18 -23 25 23 29 13 22 -58 -6 -56 -7 -58 -23 -39 -24 27 -56 101 -64
150 -6 38 -5 42 15 40 11 -1 21 -7 21 -14z m420 -98 c0 -8 -2 -15 -4 -15 -2 0
-6 7 -10 15 -3 8 -1 15 4 15 6 0 10 -7 10 -15z m-70 -11 c0 -10 5 -14 15 -10
10 3 18 -1 21 -12 3 -9 10 -25 15 -34 14 -27 -16 -23 -35 4 -13 18 -17 19 -33
8 -15 -12 -16 -12 -6 0 9 10 9 17 2 26 -11 14 -4 34 12 34 5 0 9 -7 9 -16z
m-54 -55 c1 -18 -2 -26 -6 -18 -5 8 -15 -2 -29 -30 -12 -23 -26 -39 -30 -37
-5 3 -7 -15 -5 -39 1 -28 -2 -48 -10 -52 -7 -5 -16 -15 -19 -23 -23 -49 -47
-76 -78 -87 -26 -8 -33 -16 -32 -32 2 -14 -3 -21 -14 -21 -12 0 -14 -3 -6 -11
12 -12 6 -49 -8 -49 -5 0 -9 -13 -9 -30 0 -22 -5 -30 -18 -30 -14 0 -19 -8
-19 -30 0 -16 4 -30 9 -30 16 0 8 -37 -12 -55 -11 -10 -20 -24 -20 -32 0 -7
-4 -13 -10 -13 -16 0 -50 -33 -50 -49 0 -8 -3 -12 -6 -8 -3 3 -14 -3 -25 -14
-20 -20 -26 -34 -9 -24 5 3 2 -8 -8 -24 -16 -29 -18 -29 -40 -15 -13 9 -27 13
-30 9 -4 -3 0 -10 8 -15 13 -8 13 -10 -1 -10 -9 0 -19 -7 -23 -15 -3 -8 -12
-15 -21 -15 -8 0 -15 7 -15 15 0 32 -17 10 -56 -73 -23 -48 -44 -96 -48 -106
-3 -10 -9 -16 -12 -13 -7 7 58 170 106 267 96 191 177 315 329 500 69 84 209
240 215 240 0 0 1 -14 2 -31z m-316 -88 c0 -5 -7 -12 -16 -15 -8 -3 -14 -14
-12 -23 1 -10 -1 -24 -6 -32 -6 -9 -3 -18 8 -26 15 -12 15 -13 0 -19 -8 -3
-40 -9 -70 -12 -62 -8 -66 -1 -35 60 18 35 19 37 1 24 -10 -7 -33 -24 -51 -37
l-34 -24 35 38 c19 20 53 46 75 56 42 19 105 25 105 10z m4575 -10 c46 -20
108 -86 144 -152 21 -37 21 -42 5 -28 -33 28 -136 61 -212 66 -65 5 -73 8 -78
29 -3 13 -3 28 1 34 4 6 -1 17 -10 24 -16 12 -16 13 0 29 22 23 98 22 150 -2z
m-4245 -22 c0 -6 -4 -7 -10 -4 -5 3 -10 11 -10 16 0 6 5 7 10 4 6 -3 10 -11
10 -16z m779 2 c11 -7 7 -12 -19 -18 -18 -5 -38 -18 -44 -28 -6 -11 -18 -27
-26 -35 -9 -8 -20 -28 -25 -45 -7 -20 -20 -33 -41 -40 -17 -5 -33 -14 -35 -20
-2 -5 -9 -9 -16 -7 -17 4 -17 -30 0 -47 10 -10 9 -12 -3 -9 -10 2 -14 -3 -12
-17 3 -16 1 -18 -9 -7 -18 17 -56 15 -67 -4 -5 -9 -12 -15 -15 -15 -28 4 -35
-1 -30 -19 4 -15 0 -20 -13 -20 -15 0 -30 -25 -64 -100 -25 -55 -50 -100 -56
-100 -6 0 -17 -7 -24 -15 -7 -8 -24 -15 -39 -16 -19 0 -22 -2 -9 -7 11 -5 14
-12 9 -21 -7 -10 -13 -11 -31 -1 -28 15 -53 -7 -117 -103 -25 -37 -48 -66 -50
-63 -3 3 13 34 35 68 51 78 65 112 88 213 l18 80 6 -52 c5 -50 31 -93 55 -93
19 0 62 52 95 117 30 60 50 144 65 266 3 31 9 57 11 57 3 0 21 -7 41 -15 45
-19 43 -20 43 14 0 35 9 42 85 71 96 35 169 47 194 31z m2336 -2 c49 -13 146
-50 163 -62 6 -5 12 -22 12 -38 l0 -29 37 15 c49 21 63 14 63 -32 1 -58 26
-182 49 -244 12 -31 36 -73 55 -95 31 -35 35 -38 59 -27 20 9 27 22 33 59 8
57 17 45 39 -52 12 -50 31 -91 69 -149 29 -45 61 -95 70 -112 18 -36 21 -68 6
-58 -5 3 -10 14 -10 24 0 14 -111 178 -123 182 -1 0 -22 3 -46 5 -25 3 -63 14
-84 24 -22 11 -43 17 -47 15 -10 -6 -30 49 -30 80 0 13 -7 36 -15 51 -8 16
-15 36 -15 45 0 19 -34 52 -43 42 -12 -11 -56 38 -50 56 4 12 3 13 -5 3 -8
-11 -17 -9 -51 12 -23 15 -44 33 -48 41 -3 8 -8 13 -12 11 -9 -6 -101 79 -101
93 0 6 -4 11 -10 11 -5 0 -10 5 -10 11 0 18 -62 99 -71 93 -13 -8 -11 10 3 24
15 15 60 15 113 1z m-3270 -179 c4 -6 1 -17 -5 -25 -9 -11 -16 -12 -31 -2 -18
11 -18 13 -2 25 21 15 30 15 38 2z m4496 -67 c55 -57 96 -117 135 -198 15 -33
32 -62 36 -63 5 -2 6 -8 2 -13 -3 -5 0 -9 6 -9 6 0 9 -4 6 -9 -4 -5 -1 -11 5
-13 6 -2 13 -15 14 -28 4 -40 5 -41 17 -34 7 5 9 2 5 -9 -3 -9 -2 -17 2 -19 6
-2 81 -214 96 -268 2 -8 4 -17 5 -20 1 -3 2 -8 1 -12 0 -5 4 -8 10 -8 6 0 8
-9 4 -20 -4 -12 -2 -20 5 -20 7 0 9 -8 5 -20 -3 -11 -3 -20 2 -20 4 0 9 -12
10 -28 1 -15 19 -111 41 -214 28 -130 50 -204 69 -240 38 -70 126 -163 186
-198 l48 -28 -37 -7 c-85 -16 -153 -66 -201 -150 -20 -35 -41 -61 -46 -58 -5
3 -7 -5 -5 -18 2 -16 -3 -25 -14 -27 -17 -3 -16 0 2 43 44 103 110 170 197
201 l52 18 -47 32 c-70 48 -133 119 -186 210 -42 73 -46 86 -40 123 4 27 3 41
-4 41 -6 0 -14 17 -17 38 -3 20 -13 66 -21 101 -12 52 -13 66 -2 72 10 6 8 9
-6 9 -15 0 -17 6 -14 30 2 16 1 31 -3 32 -8 3 -68 175 -115 328 -15 47 -30 89
-35 94 -5 6 -9 16 -9 23 0 7 -16 38 -37 70 -20 31 -36 69 -37 84 -1 15 -4 25
-8 23 -3 -2 -17 10 -29 28 -12 18 -49 65 -81 105 -52 64 -57 73 -41 82 26 15
24 16 74 -36z m-4841 -7 c0 -13 -7 -30 -16 -37 -9 -7 -35 -43 -59 -79 -24 -36
-50 -72 -59 -79 -15 -13 -36 -8 -36 9 0 17 73 133 107 171 40 45 63 50 63 15z
m290 -12 c0 -8 -5 -12 -10 -9 -6 4 -8 11 -5 16 9 14 15 11 15 -7z m-15 -42
c-3 -3 -11 0 -18 7 -9 10 -8 11 6 5 10 -3 15 -9 12 -12z m2106 -40 c-16 -5
-14 -41 4 -58 13 -14 15 -13 15 3 0 14 2 15 9 5 6 -10 10 -9 14 7 3 12 2 19
-3 16 -4 -3 -11 2 -14 11 -4 11 -2 15 6 11 7 -2 22 -1 32 3 14 5 28 -3 54 -32
19 -21 45 -41 58 -44 35 -9 29 -21 -13 -32 -37 -10 -37 -10 -8 -11 17 0 41 6
55 14 14 8 31 14 39 15 23 0 -5 -25 -49 -45 -25 -11 -36 -21 -29 -26 8 -4 4
-11 -12 -19 -13 -7 -34 -21 -46 -32 -12 -11 -27 -17 -33 -13 -7 4 -10 1 -9 -6
3 -26 -14 -81 -28 -86 -8 -3 -11 -13 -7 -25 4 -14 2 -18 -5 -14 -6 4 -11 14
-11 23 0 9 -6 13 -14 10 -10 -4 -19 7 -28 35 -9 27 -30 55 -59 80 -41 34 -47
37 -79 28 -19 -5 -52 -12 -74 -15 -34 -6 -36 -8 -21 -19 15 -10 16 -16 6 -32
-11 -18 -12 -18 -6 2 4 14 0 24 -10 27 -19 8 -8 37 14 37 13 0 13 2 2 9 -8 5
12 7 50 5 l64 -3 -35 29 c-19 16 -43 32 -52 35 -20 7 -23 21 -8 30 6 3 10 0
10 -8 0 -18 22 -27 63 -26 30 1 30 1 7 8 l-25 7 25 13 c14 8 35 22 47 33 12
11 26 17 32 13 14 -8 63 44 54 59 -4 6 1 4 11 -4 11 -8 14 -16 7 -18z m-2131
-11 c0 -17 -12 -41 -21 -41 -7 0 -7 24 0 48 2 7 21 1 21 -7z m1917 -17 c-3 -3
-12 -4 -19 -1 -8 3 -5 6 6 6 11 1 17 -2 13 -5z m-37 -38 c0 -3 -4 -8 -10 -11
-5 -3 -10 -1 -10 4 0 6 5 11 10 11 6 0 10 -2 10 -4z m587 -12 c-3 -3 -12 -4
-19 -1 -8 3 -5 6 6 6 11 1 17 -2 13 -5z m-2873 -58 c9 -14 7 -21 -10 -34 -11
-10 -18 -24 -16 -32 4 -12 3 -13 -10 -3 -16 14 -28 8 -28 -14 0 -7 7 -13 15
-13 13 0 14 -4 4 -22 -6 -13 -19 -30 -29 -38 -20 -17 -60 -120 -60 -155 0 -13
-10 -33 -21 -44 -14 -13 -20 -27 -16 -40 3 -11 -1 -26 -10 -32 -12 -10 -13 -8
-9 17 8 44 70 229 79 232 4 2 7 10 7 17 0 26 73 186 83 182 6 -2 15 -11 21
-21z m2186 14 c0 -5 -5 -10 -11 -10 -5 0 -7 5 -4 10 3 6 8 10 11 10 2 0 4 -4
4 -10z m743 -5 c0 -6 -8 -11 -19 -12 -10 -2 -13 0 -6 3 6 3 9 10 6 16 -4 6 -1
9 5 7 7 -3 13 -9 14 -14z m-1725 -17 c-6 -17 -36 -34 -45 -24 -4 4 1 14 11 22
24 17 39 18 34 2z m1122 -3 c0 -8 -2 -15 -4 -15 -2 0 -6 7 -10 15 -3 8 -1 15
4 15 6 0 10 -7 10 -15z m1618 -10 c14 -31 -2 -34 -35 -6 -29 24 -29 31 0 31
16 0 28 -9 35 -25z m-1107 -27 c17 16 30 15 23 -2 -7 -17 -42 -28 -50 -15 -3
5 -15 9 -28 9 -12 0 -31 7 -42 16 -10 8 -14 13 -7 10 6 -3 22 -2 34 2 18 7 27
4 40 -12 14 -17 20 -19 30 -8z m-653 9 c9 -27 -34 -60 -48 -37 -4 6 -10 11
-14 11 -24 -3 -27 1 -11 19 18 20 67 25 73 7z m797 3 c3 -6 -1 -7 -10 -4 -11
5 -14 2 -8 -12 5 -12 3 -15 -6 -9 -8 4 -17 2 -22 -6 -7 -11 -9 -10 -9 5 0 15
-3 16 -15 6 -19 -15 -20 -6 -2 12 17 16 64 21 72 8z m-1579 -84 c30 -17 58
-21 124 -21 89 0 138 16 230 76 31 21 33 21 21 4 -65 -89 -138 -125 -249 -125
-106 0 -193 54 -191 119 l1 36 12 -34 c8 -24 25 -41 52 -55z m1589 54 c3 -5 1
-10 -4 -10 -6 0 -11 5 -11 10 0 6 2 10 4 10 3 0 8 -4 11 -10z m-531 -45 c48
-59 59 -84 53 -121 -3 -19 -2 -34 4 -34 5 0 9 -5 9 -12 0 -6 -9 -3 -21 8 -13
12 -16 20 -9 22 7 3 8 7 4 11 -5 3 -21 29 -35 56 -21 40 -37 55 -79 77 -51 25
-52 27 -24 30 55 8 65 4 98 -37z m316 37 c0 -4 -15 -13 -32 -20 -18 -6 -49
-26 -68 -44 -19 -18 -38 -33 -42 -33 -4 0 -14 -9 -22 -20 -14 -19 -15 -17 -6
15 9 34 56 84 95 100 26 11 75 12 75 2z m246 -34 c-2 -20 -10 -34 -22 -38 -17
-6 -17 -8 3 -18 12 -7 30 -12 40 -12 17 -1 17 -1 0 -11 -12 -7 -23 -6 -39 5
-26 18 -48 21 -48 6 0 -5 6 -10 14 -10 8 0 17 -4 20 -9 4 -5 -2 -7 -13 -4 -12
3 -24 -3 -34 -17 -9 -13 -27 -23 -44 -23 -15 -1 -31 -6 -35 -11 -3 -5 -22 -10
-42 -10 -20 -1 -36 -4 -36 -7 0 -4 -11 -10 -25 -13 -13 -3 -37 -11 -52 -18
-15 -6 -41 -13 -58 -15 -30 -3 -30 -3 10 21 33 22 112 46 146 46 17 0 99 40
99 49 0 4 -11 13 -25 19 -28 13 -33 43 -10 62 12 10 15 10 15 -3 0 -8 7 -20
15 -27 12 -10 15 -10 15 2 0 9 11 14 34 14 41 0 69 21 63 46 -3 10 -1 16 4 13
5 -4 7 -20 5 -37z m-659 -14 c13 5 67 -33 59 -41 -3 -3 -1 -16 4 -29 6 -14 6
-24 1 -24 -5 0 -7 -10 -3 -22 5 -23 5 -23 -17 -4 -12 11 -37 50 -56 88 -37 72
-46 102 -17 55 9 -15 22 -25 29 -23z m-1226 6 c22 0 25 -13 7 -28 -15 -11 -88
-21 -88 -12 0 4 7 21 16 38 14 28 17 30 30 17 9 -8 24 -15 35 -15z m1642 -5
c-9 -19 -20 -35 -25 -35 -4 0 -8 -10 -8 -23 0 -13 -7 -32 -16 -43 -8 -10 -13
-13 -9 -6 5 10 0 11 -19 6 -27 -6 -31 1 -20 30 3 9 10 14 14 11 4 -3 7 3 6 12
0 10 15 26 39 40 22 12 36 23 30 23 -8 0 13 19 22 20 2 0 -5 -16 -14 -35z
m-663 4 c4 8 15 11 25 8 9 -4 14 -11 10 -16 -9 -16 13 -23 36 -11 17 10 23 8
35 -7 15 -21 18 -37 5 -28 -18 10 -22 -15 -7 -37 11 -15 16 -18 16 -8 1 12 4
11 14 -3 8 -10 16 -17 18 -16 4 4 94 -19 147 -38 41 -15 43 -17 22 -25 -13 -4
-28 -5 -34 -1 -7 4 -14 8 -17 8 -34 5 -70 19 -70 26 0 6 -4 8 -8 5 -4 -2 -28
0 -53 5 -44 10 -109 56 -109 78 0 14 -17 14 -25 1 -3 -5 -13 -10 -22 -10 -14
0 -14 3 2 20 10 11 16 21 14 23 -2 1 -13 7 -23 13 -11 6 -22 17 -24 25 -3 9 3
7 17 -6 18 -15 24 -17 31 -6z m125 -4 c0 -22 -2 -23 -15 -9 -13 13 -13 16 0
24 8 5 15 10 15 10 0 0 0 -11 0 -25z m1799 3 c12 -45 9 -47 -51 -41 -92 9 -92
19 2 51 43 14 42 14 49 -10z m-1724 -44 c0 -8 -5 -12 -10 -9 -6 4 -8 11 -5 16
9 14 15 11 15 -7z m-50 -14 c0 -11 -2 -20 -4 -20 -2 0 -6 9 -9 20 -3 11 -1 20
4 20 5 0 9 -9 9 -20z m560 10 c0 -5 -2 -10 -4 -10 -3 0 -8 5 -11 10 -3 6 -1
10 4 10 6 0 11 -4 11 -10z m297 -12 c-3 -8 -6 -5 -6 6 -1 11 2 17 5 13 3 -3 4
-12 1 -19z m-483 -31 c-10 -26 -22 -20 -16 9 3 15 8 22 14 16 5 -5 6 -16 2
-25z m-474 -13 c0 -8 -4 -12 -10 -9 -5 3 -10 10 -10 16 0 5 5 9 10 9 6 0 10
-7 10 -16z m-1226 -5 c42 -11 133 -88 105 -89 -9 0 -21 -11 -27 -25 -13 -28
-32 -33 -32 -9 0 47 -82 104 -151 104 -31 0 -79 -20 -114 -49 -11 -8 -6 -1 10
18 52 58 121 75 209 50z m3386 -7 c18 -10 45 -34 59 -53 l25 -34 -29 26 c-46
41 -96 53 -155 39 -53 -13 -100 -55 -100 -90 0 -10 -4 -21 -8 -24 -9 -6 -72
32 -72 44 0 16 89 87 122 97 53 17 120 15 158 -5z m-1337 -31 c13 8 15 6 11
-6 -8 -20 -38 -19 -55 2 -13 15 -12 15 6 5 13 -7 26 -7 38 -1z m942 -17 c-13
-10 -14 -17 -5 -33 9 -17 8 -21 -5 -21 -18 0 -36 40 -24 55 4 6 17 11 29 11
19 0 20 -2 5 -12z m-1612 -39 c-7 -21 -13 -19 -13 6 0 11 4 18 10 14 5 -3 7
-12 3 -20z m230 -13 c7 -9 12 -8 22 5 16 22 33 8 19 -14 -12 -19 -50 -24 -64
-8 -5 6 -6 22 -3 35 4 16 8 20 11 10 3 -8 9 -21 15 -28z m277 17 c0 -18 -2
-19 -15 -9 -8 7 -15 16 -15 21 0 5 7 9 15 9 9 0 15 -9 15 -21z m1017 -1 c-3
-8 -6 -5 -6 6 -1 11 2 17 5 13 3 -3 4 -12 1 -19z m-1047 -19 c0 -5 -7 -6 -15
-3 -8 4 -15 13 -15 21 0 13 3 13 15 3 8 -7 15 -16 15 -21z m-404 -4 c-1 -8 -6
-18 -11 -22 -4 -4 -5 -2 -1 5 9 15 1 15 -26 1 -25 -13 -35 -5 -18 16 16 20 59
20 56 0z m370 1 c32 -24 9 -29 -33 -7 -35 18 -36 20 -12 21 14 0 34 -6 45 -14z
m-316 0 c0 -2 -7 -6 -15 -10 -8 -3 -15 -1 -15 4 0 6 7 10 15 10 8 0 15 -2 15
-4z m185 -16 c-3 -5 -12 -10 -18 -10 -7 0 -6 4 3 10 19 12 23 12 15 0z m2055
-66 c33 -5 40 -10 40 -29 0 -22 -6 -24 -72 -30 -40 -4 -1002 -5 -2137 -3
-1694 2 -2065 5 -2069 16 -2 7 -16 18 -31 24 -26 12 -26 12 14 18 52 9 4202
12 4255 4z m-4725 -61 c-4 -16 -9 -41 -12 -58 -5 -31 -23 -60 -23 -36 0 20 31
121 37 121 3 0 2 -12 -2 -27z m-155 3 c0 -8 -4 -18 -10 -21 -5 -3 -10 3 -10
14 0 12 5 21 10 21 6 0 10 -6 10 -14z m117 -138 c-3 -8 -6 -5 -6 6 -1 11 2 17
5 13 3 -3 4 -12 1 -19z m-17 -88 c-6 -29 -13 -56 -16 -59 -7 -7 6 99 13 112
11 19 12 -3 3 -53z m5175 -180 c3 -5 1 -10 -4 -10 -6 0 -11 5 -11 10 0 6 2 10
4 10 3 0 8 -4 11 -10z m25 -69 c-6 -12 -18 -20 -28 -20 -16 1 -15 2 1 6 9 2
14 9 11 15 -4 6 0 14 7 19 19 11 22 4 9 -20z m-4200 14 c0 -2 -13 -26 -30 -52
-16 -26 -30 -54 -30 -62 0 -9 -10 -2 -21 17 -32 48 -66 62 -159 62 l-80 0 0
-105 0 -105 57 0 c52 0 60 3 95 37 l38 37 0 -94 0 -94 -38 37 c-35 34 -43 37
-95 37 l-57 0 0 -117 0 -117 32 -33 32 -33 -110 0 -109 1 33 28 32 27 0 122
c0 120 0 122 -23 122 -12 0 -33 -7 -46 -16 -23 -16 -23 -16 -11 6 6 12 27 28
46 36 l34 14 0 97 c0 92 -1 98 -27 125 l-27 28 232 0 c128 0 232 -2 232 -5z
m222 -28 l-32 -33 0 -235 0 -236 25 -23 c14 -13 27 -21 30 -18 3 3 -1 11 -10
18 -13 10 -15 49 -15 249 l0 238 28 24 27 24 -22 -26 c-22 -25 -23 -31 -23
-261 0 -200 2 -237 15 -248 9 -7 25 -26 36 -42 l20 -28 -118 2 -118 2 108 3
c94 3 107 6 97 18 -10 12 -38 15 -119 15 l-106 1 33 27 32 27 0 235 0 234 -32
33 -32 33 104 0 104 0 -32 -33z m300 0 c-32 -32 -32 -34 -32 -130 0 -80 3 -97
15 -97 12 0 15 18 15 98 0 92 2 100 25 122 14 13 25 19 25 14 0 -5 -9 -15 -20
-22 -19 -12 -20 -21 -18 -115 l3 -102 80 0 80 0 3 109 c3 109 3 110 -25 132
l-28 23 104 1 105 0 -32 -33 -32 -33 0 -235 0 -236 25 -23 c14 -13 25 -18 25
-12 0 6 -4 14 -10 17 -6 4 -10 98 -10 249 l0 243 28 24 27 24 -22 -26 c-22
-25 -23 -31 -23 -265 l0 -240 36 -42 36 -42 -124 2 -123 2 114 5 c99 5 112 8
98 20 -13 10 -45 13 -120 12 l-102 -2 28 28 c26 28 27 34 27 126 0 71 -3 97
-12 98 -10 0 -10 2 0 6 31 12 4 18 -93 18 l-105 1 0 -110 c0 -106 1 -111 27
-138 l27 -28 -100 0 -99 0 33 31 33 31 -2 110 c-1 60 -6 111 -11 114 -13 8
-68 -16 -68 -29 0 -6 -3 -8 -6 -5 -10 11 27 56 56 68 l30 12 -1 97 c-1 93 -2
97 -32 129 l-31 32 104 0 104 0 -32 -33z m808 8 l-23 -25 34 -91 c40 -107 43
-114 58 -105 8 5 8 13 0 27 -6 12 -8 23 -6 26 3 2 8 -5 12 -16 7 -23 20 -27
30 -11 10 17 23 11 29 -14 3 -13 9 -31 12 -40 5 -12 0 -16 -17 -16 -54 0 -55
-11 -15 -123 20 -57 44 -114 52 -126 16 -22 41 -30 27 -8 -9 14 68 -46 87 -68
11 -13 -2 -15 -121 -13 l-134 2 124 6 c109 4 122 7 107 19 -13 11 -45 14 -134
12 l-117 -3 29 30 28 30 -22 58 c-11 32 -24 62 -28 68 -4 6 -7 14 -7 18 0 22
-18 13 -56 -30 l-45 -49 -34 49 c-30 45 -35 48 -46 33 -12 -16 -13 -15 -11 10
4 52 -20 37 -37 -23 -18 -65 -21 -138 -6 -147 5 -3 15 -15 20 -26 10 -18 7
-19 -97 -19 l-108 0 36 24 c46 32 84 88 119 177 27 68 28 75 13 87 -9 6 -25
12 -35 12 -22 0 -22 1 -1 45 l17 35 27 -26 c21 -20 27 -22 32 -10 4 9 -4 23
-21 37 l-27 21 28 -17 c16 -9 30 -15 31 -13 1 2 16 40 33 85 l30 81 -26 26
-26 26 104 0 104 0 -23 -25z m809 5 c-273 -399 -357 -530 -341 -530 12 0 74
83 197 265 98 146 180 265 183 265 5 0 2 -5 -190 -290 l-159 -235 71 -3 c85
-3 134 16 165 65 11 18 23 32 27 33 3 0 11 -15 17 -32 7 -18 23 -50 36 -70
l25 -38 -260 0 -260 0 170 255 170 254 -68 4 -67 3 71 2 c50 1 75 7 84 17 11
13 1 15 -85 15 -110 0 -156 -15 -185 -62 l-17 -28 -31 60 c-18 33 -32 62 -32
65 0 3 111 5 246 5 245 0 246 0 233 -20z m489 4 c42 -9 93 -14 113 -12 l37 3
-37 -67 c-37 -70 -51 -83 -51 -48 0 11 -15 37 -34 57 -30 33 -39 37 -92 40
-75 5 -118 -17 -159 -82 -26 -42 -30 -58 -33 -144 -2 -53 1 -114 7 -137 28
-105 98 -154 218 -154 l73 0 0 120 0 120 -87 2 -88 2 88 3 c68 3 87 7 87 18 0
12 -17 15 -84 15 -108 0 -136 10 -136 49 0 33 20 54 44 45 21 -8 20 -33 -1
-50 -15 -11 8 -13 151 -14 l170 0 -32 -33 -32 -33 0 -109 c0 -105 1 -110 28
-138 l27 -29 -175 4 c-195 4 -223 12 -286 80 -52 55 -67 95 -72 189 -7 138 37
232 131 281 79 40 117 44 225 22z m464 -17 l-32 -33 0 -235 0 -236 25 -23 c14
-13 27 -21 30 -18 3 3 -1 11 -10 18 -13 10 -15 49 -15 249 l0 238 28 24 27 24
-22 -26 c-22 -25 -23 -31 -23 -261 0 -200 2 -237 15 -248 9 -7 25 -26 36 -42
l20 -28 -118 2 -118 2 108 3 c94 3 107 6 97 18 -10 12 -38 15 -119 15 l-106 1
33 27 32 27 0 235 0 234 -32 33 -32 33 104 0 104 0 -32 -33z m311 13 c-18 -11
-33 -21 -33 -22 0 -7 213 -414 221 -422 13 -14 11 41 -2 66 -8 15 -8 19 1 13
9 -6 11 33 8 160 l-3 167 -33 29 -32 29 92 0 92 0 -33 -28 c-45 -37 -50 -73
-51 -339 l0 -223 -34 0 -35 0 -108 209 -108 210 -5 -167 -6 -167 -2 185 c-2
148 -6 189 -18 205 -14 18 -15 1 -12 -187 3 -191 5 -209 24 -235 11 -15 32
-33 46 -40 13 -7 33 -21 43 -33 l18 -20 -124 2 -124 2 113 3 c99 3 112 6 102
18 -9 11 -37 15 -111 15 l-99 0 30 28 c43 38 49 77 50 309 l0 202 -32 25 -33
26 115 0 115 0 -32 -20z m-2032 -19 c-12 -17 -19 -37 -15 -48 5 -15 4 -15 -5
-3 -15 20 -14 23 10 54 28 35 35 33 10 -3z m-1367 -42 c-19 -28 -34 -56 -34
-62 0 -6 -3 -8 -6 -5 -7 8 10 42 43 86 37 50 36 38 -3 -19z m3427 37 c-10 -11
-9 -21 4 -45 8 -17 13 -31 11 -31 -3 0 -13 14 -21 31 -13 24 -14 34 -4 45 6 8
14 14 16 14 3 0 0 -6 -6 -14z m282 -8 c-12 -6 -27 -22 -32 -37 -6 -17 -10 -20
-10 -8 -1 20 33 57 52 56 6 0 2 -5 -10 -11z m-3910 -15 c-13 -2 -35 -2 -50 0
-16 2 -5 4 22 4 28 0 40 -2 28 -4z m2770 0 c-7 -2 -21 -2 -30 0 -10 3 -4 5 12
5 17 0 24 -2 18 -5z m-3773 -13 c0 -5 -8 -10 -17 -10 -15 0 -16 2 -3 10 19 12
20 12 20 0z m5395 -8 c-3 -3 -11 0 -18 7 -9 10 -8 11 6 5 10 -3 15 -9 12 -12z
m-1705 5 c0 -2 -12 -14 -27 -28 l-28 -24 24 28 c23 25 31 32 31 24z m-707 -31
c-10 -13 -20 -22 -22 -20 -4 4 29 44 36 44 2 0 -4 -11 -14 -24z m-2983 -1 c0
-16 -53 -86 -93 -122 -44 -41 -94 -68 -146 -79 -18 -4 -11 4 23 24 56 34 139
113 164 154 14 23 52 40 52 23z m3953 -40 c-9 -19 -18 -33 -21 -31 -4 5 26 66
33 66 3 0 -3 -16 -12 -35z m-1363 -20 c0 -5 -5 -3 -10 5 -5 8 -10 20 -10 25 0
6 5 3 10 -5 5 -8 10 -19 10 -25z m-1493 -157 c-2 -29 -3 -8 -3 47 0 55 1 79 3
53 2 -26 2 -71 0 -100z m2520 110 c-3 -7 -5 -2 -5 12 0 14 2 19 5 13 2 -7 2
-19 0 -25z m1123 -68 c22 -44 38 -80 35 -80 -3 0 -23 36 -45 80 -22 44 -38 80
-35 80 3 0 23 -36 45 -80z m-1133 -32 c-2 -18 -4 -6 -4 27 0 33 2 48 4 33 2
-15 2 -42 0 -60z m1838 52 c3 -5 1 -10 -4 -10 -6 0 -11 5 -11 10 0 6 2 10 4
10 3 0 8 -4 11 -10z m-1433 -23 c-20 -21 -22 -34 -22 -139 0 -92 3 -118 15
-128 9 -7 25 -26 36 -42 l20 -28 -188 2 -188 2 179 6 180 5 -32 36 c-32 37
-32 37 -32 150 0 102 2 115 22 136 12 13 24 23 26 23 3 0 -4 -10 -16 -23z
m-1278 -36 c-6 -6 -11 1 -18 29 l-7 25 15 -25 c8 -14 12 -27 10 -29z m2756 40
c0 -12 -28 -22 -34 -12 -3 5 -3 11 1 15 9 9 33 7 33 -3z m-1805 -19 c-3 -3
-11 0 -18 7 -9 10 -8 11 6 5 10 -3 15 -9 12 -12z m-2925 -22 c-8 -5 -19 -10
-25 -10 -5 0 -3 5 5 10 8 5 20 10 25 10 6 0 3 -5 -5 -10z m233 3 c-13 -2 -35
-2 -50 0 -16 2 -5 4 22 4 28 0 40 -2 28 -4z m1717 3 c0 -2 -15 -6 -34 -8 -19
-2 -32 0 -30 4 5 8 64 12 64 4z m-2850 -32 c35 -18 97 -73 83 -74 -6 0 -25 11
-41 25 -16 14 -49 36 -73 51 -44 25 -19 24 31 -2z m1720 22 c0 -2 -7 -7 -16
-10 -8 -3 -12 -2 -9 4 6 10 25 14 25 6z m173 -236 c58 -64 62 -60 -69 -58
l-119 2 109 5 110 6 -32 36 c-32 37 -32 37 -30 140 l2 104 3 -105 c3 -92 6
-108 26 -130z m90 223 c-13 -2 -35 -2 -50 0 -16 2 -5 4 22 4 28 0 40 -2 28 -4z
m1774 -55 c-3 -7 -5 -2 -5 12 0 14 2 19 5 13 2 -7 2 -19 0 -25z m-937 -13 c0
-5 -5 -3 -10 5 -5 8 -10 20 -10 25 0 6 5 3 10 -5 5 -8 10 -19 10 -25z m-170
-18 c0 -2 -10 -12 -22 -23 l-23 -19 19 23 c18 21 26 27 26 19z m-183 -29 c-3
-8 -6 -5 -6 6 -1 11 2 17 5 13 3 -3 4 -12 1 -19z m383 -33 c0 -5 -5 -3 -10 5
-5 8 -10 20 -10 25 0 6 5 3 10 -5 5 -8 10 -19 10 -25z m-344 -102 l25 -33
-128 2 -128 2 118 3 117 4 -25 37 c-14 20 -25 43 -24 52 0 8 5 4 10 -10 6 -13
21 -39 35 -57z m-1378 -15 c14 -17 8 -18 -119 -16 l-134 2 123 6 123 5 -30 35
c-17 19 -30 39 -31 43 0 5 12 -6 27 -25 15 -18 33 -41 41 -50z m2423 3 c-12
-21 -16 -21 -279 -19 l-267 3 266 2 c235 3 268 5 273 19 4 9 1 24 -6 33 -11
15 -10 15 6 0 15 -14 16 -21 7 -38z m1442 -18 c-13 -2 -35 -2 -50 0 -16 2 -5
4 22 4 28 0 40 -2 28 -4z m850 -80 c-6 -39 -10 -50 -17 -42 -6 8 6 79 14 79 5
0 6 -17 3 -37z m-333 17 c0 -5 -4 -10 -10 -10 -5 0 -10 5 -10 10 0 6 5 10 10
10 6 0 10 -4 10 -10z m290 -240 c0 -5 -5 -10 -11 -10 -5 0 -7 5 -4 10 3 6 8
10 11 10 2 0 4 -4 4 -10z m-221 -184 c-6 -21 -13 -36 -16 -33 -3 3 0 22 7 42
16 47 23 40 9 -9z m-2973 -1 c29 -37 15 -44 -26 -15 -35 25 -84 21 -74 -5 9
-22 -208 -22 -226 0 -16 19 -66 20 -73 1 -8 -21 -50 -25 -161 -15 -55 5 -122
11 -149 13 -26 2 -54 9 -62 16 -10 9 -15 9 -15 1 0 -6 -15 -11 -32 -10 -26 0
-29 2 -14 8 11 4 15 10 10 14 -17 10 -118 0 -122 -12 -2 -6 -8 -11 -13 -11 -6
0 -7 5 -4 10 13 21 -65 13 -82 -8 -12 -15 -13 -15 -11 3 2 14 -3 20 -20 21
-16 1 -21 -3 -18 -12 3 -8 1 -14 -4 -14 -6 0 -10 7 -10 16 0 11 -5 14 -17 9
-12 -4 -15 -3 -8 4 13 13 131 16 668 16 l439 0 24 -30z m940 20 c4 -8 11 -15
16 -15 6 0 6 6 -1 14 -10 12 -8 14 16 11 15 -2 33 -4 40 -4 7 -1 10 -8 7 -16
-9 -24 33 -19 46 5 10 19 19 21 87 18 l76 -3 2 -31 c2 -31 1 -32 -44 -38 -25
-3 -156 -3 -291 0 -135 3 -284 5 -332 5 -70 0 -88 3 -88 15 0 9 -11 14 -34 14
-19 0 -37 6 -40 13 -3 8 -11 5 -25 -12 -21 -23 -22 -23 -57 -6 -34 16 -37 16
-55 -1 -18 -17 -20 -17 -33 1 -12 17 -42 13 -31 -5 7 -12 -51 -30 -97 -30 -44
0 -81 26 -58 40 9 6 8 10 -6 19 -18 10 -18 11 3 8 11 -2 28 -9 37 -16 9 -8 20
-11 23 -7 4 4 1 11 -7 16 -10 6 47 9 154 9 93 0 171 3 174 6 3 3 119 5 259 5
216 0 254 -2 259 -15z m923 8 c84 -3 147 -9 141 -13 -13 -8 5 -25 35 -33 11
-2 -18 -5 -65 -6 -47 -1 -158 -4 -248 -7 -141 -5 -163 -3 -168 10 -7 17 -44
22 -44 7 0 -6 -16 -3 -35 5 -39 16 -83 10 -101 -14 -10 -13 -16 -14 -44 -2
-23 9 -34 10 -39 2 -4 -6 -13 1 -23 19 l-17 29 29 0 c17 0 30 -4 30 -10 0 -5
7 -10 15 -10 8 0 15 4 15 9 0 5 59 9 132 10 72 1 134 3 136 6 7 7 69 6 251 -2z
m307 -24 c19 -11 34 -22 34 -25 0 -2 -17 -3 -37 -2 -24 1 -44 9 -56 22 -13 15
-20 17 -23 9 -7 -17 -31 -16 -37 0 -9 24 80 21 119 -4z m34 11 c0 -5 -2 -10
-4 -10 -3 0 -8 5 -11 10 -3 6 -1 10 4 10 6 0 11 -4 11 -10z m130 1 c0 -4 -11
-6 -25 -3 -14 2 -25 6 -25 8 0 2 11 4 25 4 14 0 25 -4 25 -9z m-3310 -31 c0
-5 -7 -10 -15 -10 -8 0 -15 5 -15 10 0 6 7 10 15 10 8 0 15 -4 15 -10z m3083
-7 c-7 -2 -19 -2 -25 0 -7 3 -2 5 12 5 14 0 19 -2 13 -5z m837 -60 c-11 -17
-11 -17 -6 0 3 10 6 24 7 30 0 9 2 9 5 0 3 -7 0 -20 -6 -30z m-18 -55 c-8 -8
-9 -4 -5 13 4 13 8 18 11 10 2 -7 -1 -18 -6 -23z m-3154 -221 c72 -109 132
-167 279 -269 145 -101 171 -124 220 -198 34 -51 86 -150 78 -150 -2 0 -27 33
-55 74 -27 41 -60 82 -72 91 -13 8 -22 19 -21 23 4 12 -67 82 -101 99 -17 9
-63 38 -102 64 -163 111 -323 319 -340 441 -5 42 -4 41 32 -32 20 -41 57 -106
82 -143z m652 187 c0 -8 -4 -12 -10 -9 -5 3 -10 10 -10 16 0 5 5 9 10 9 6 0
10 -7 10 -16z m1159 -8 c51 -27 126 -125 108 -142 -3 -3 -20 15 -38 40 -18 25
-35 46 -39 46 -9 0 -70 55 -70 63 0 10 8 9 39 -7z m-2724 -6 c8 -13 -43 -60
-64 -60 -10 0 -22 -5 -27 -10 -16 -16 -73 -30 -79 -19 -4 5 5 9 19 9 17 0 39
13 62 38 29 30 35 33 31 15 -7 -31 19 -19 27 13 7 25 20 31 31 14z m1515 -5
c6 -8 9 -19 5 -25 -3 -5 -1 -10 4 -10 6 0 11 -4 11 -10 0 -21 -17 -8 -32 25
-16 36 -10 47 12 20z m-1206 -20 c-16 -13 -39 -37 -52 -52 l-24 -28 16 31 c15
31 61 73 80 74 5 0 -4 -11 -20 -25z m3719 -12 c-37 -90 -143 -287 -150 -280
-2 3 17 44 43 93 26 49 62 119 81 157 35 72 52 91 26 30z m-1787 -28 c-4 -19
-12 -38 -19 -42 -19 -12 -138 -213 -125 -210 6 1 17 -8 23 -20 7 -13 15 -20
18 -16 4 3 7 -1 7 -10 0 -10 4 -17 10 -17 16 0 60 23 60 32 0 4 7 8 15 8 7 0
19 8 24 18 7 11 10 13 11 3 0 -11 4 -11 23 1 27 17 107 41 114 34 11 -11 -9
-24 -69 -46 -154 -55 -370 -173 -471 -257 -36 -29 -39 -29 -59 7 -25 44 -50
38 -95 -21 -69 -93 -138 -149 -96 -78 47 79 106 139 189 194 135 88 237 169
287 227 42 50 146 220 148 243 0 5 3 4 6 -3 3 -7 2 -28 -1 -47z m887 31 c18
-14 57 -31 87 -39 51 -13 53 -15 27 -22 -55 -15 -119 12 -146 63 -15 28 -7 28
32 -2z m-3412 -13 c13 -16 12 -17 -3 -4 -10 7 -18 15 -18 17 0 8 8 3 21 -13z
m2179 2 c0 -8 -7 -15 -15 -15 -13 0 -14 3 -3 15 16 18 18 18 18 0z m-1266 -24
c27 -12 46 -24 43 -27 -3 -3 -20 2 -39 12 -21 11 -65 19 -123 23 -62 3 -82 7
-65 12 41 12 132 2 184 -20z m526 19 c0 -5 -2 -10 -4 -10 -3 0 -8 5 -11 10 -3
6 -1 10 4 10 6 0 11 -4 11 -10z m1507 -11 c60 -29 54 -40 -9 -18 -90 31 -174
24 -267 -24 -41 -20 -52 -16 -17 6 83 55 220 71 293 36z m-2260 -15 c-3 -3
-12 -4 -19 -1 -8 3 -5 6 6 6 11 1 17 -2 13 -5z m-59 -33 c-13 -15 -25 -27 -27
-25 -4 4 39 54 47 54 2 0 -7 -13 -20 -29z m932 -10 c0 -11 -69 -20 -76 -10 -2
4 6 10 18 12 41 8 58 7 58 -2z m620 -1 c0 -5 -2 -10 -4 -10 -3 0 -8 5 -11 10
-3 6 -1 10 4 10 6 0 11 -4 11 -10z m-544 -14 c3 -8 11 -13 17 -10 7 2 30 -6
52 -19 44 -25 85 -87 85 -129 0 -15 4 -29 9 -33 13 -7 31 27 31 58 0 29 35 77
56 77 8 0 13 3 10 8 -2 4 9 15 25 24 19 11 29 13 29 6 0 -7 7 -3 15 8 11 15
14 16 15 3 0 -8 -17 -23 -38 -32 -21 -9 -48 -28 -61 -41 l-22 -24 34 -6 c39
-7 72 -36 42 -36 -14 0 -16 -6 -11 -27 4 -16 3 -23 -1 -17 -8 11 -47 34 -57
34 -13 0 -4 -22 17 -44 l23 -23 -23 -10 c-13 -6 -23 -7 -23 -2 0 5 -4 9 -10 9
-5 0 -10 -9 -10 -20 0 -27 -17 -26 -26 2 l-6 21 -12 -21 c-8 -15 -16 -18 -25
-13 -10 7 -12 22 -8 60 6 50 1 60 -18 42 -16 -14 -63 -22 -69 -12 -4 5 -2 11
3 13 5 1 11 10 13 18 2 8 14 17 28 20 45 9 31 40 -32 72 -32 16 -58 34 -58 39
0 6 -4 7 -10 4 -5 -3 -10 -1 -10 4 0 16 20 13 26 -3z m374 -6 c0 -5 -5 -10
-11 -10 -5 0 -7 5 -4 10 3 6 8 10 11 10 2 0 4 -4 4 -10z m-157 -27 c-7 -2 -10
-10 -7 -16 2 -7 -2 -21 -10 -32 -15 -20 -15 -20 -16 0 0 24 29 69 39 59 3 -4
1 -9 -6 -11z m1354 -28 c-15 -14 -36 -25 -45 -25 -13 1 -11 6 11 25 15 14 36
25 45 25 13 -1 11 -6 -11 -25z m-2751 -6 c8 -14 -10 -11 -32 6 -18 13 -18 14
4 8 12 -3 25 -9 28 -14z m1338 15 c12 -4 16 -19 16 -53 l-1 -46 -13 35 c-7 19
-17 43 -21 53 -8 18 -5 20 19 11z m191 -25 c-4 -5 -16 -9 -28 -9 -21 1 -21 1
-3 15 20 15 41 11 31 -6z m-337 -7 c9 -6 6 -12 -12 -20 -28 -13 -40 -6 -23 14
14 16 18 16 35 6z m362 -12 c0 -5 -5 -10 -11 -10 -5 0 -7 5 -4 10 3 6 8 10 11
10 2 0 4 -4 4 -10z m1008 -21 c14 -22 10 -35 -6 -25 -12 7 -23 46 -13 46 3 0
12 -9 19 -21z m-118 -39 c0 -13 -1 -13 -10 0 -5 8 -10 22 -10 30 0 13 1 13 10
0 5 -8 10 -22 10 -30z m-1223 24 c-3 -3 -12 -4 -19 -1 -8 3 -5 6 6 6 11 1 17
-2 13 -5z m1481 -14 c29 0 -1 -20 -31 -20 -18 -1 -43 -7 -57 -15 -53 -30 -50
-7 4 26 17 11 40 17 51 14 11 -2 26 -5 33 -5z m-2198 -10 c0 -5 3 -9 8 -8 17
3 72 -18 148 -58 45 -23 96 -45 112 -47 38 -6 41 -8 125 -74 68 -54 90 -80 40
-47 -119 78 -204 120 -407 200 -49 20 -72 44 -42 44 9 0 16 -4 16 -10z m-420
-9 c0 -5 -9 -7 -20 -4 -11 3 -20 7 -20 9 0 2 9 4 20 4 11 0 20 -4 20 -9z
m2208 -66 c2 -40 8 -73 15 -77 8 -5 9 -10 2 -15 -6 -5 -17 -27 -25 -51 -26
-81 -38 -81 -24 -1 17 97 18 206 2 213 -7 3 -4 5 7 3 18 -2 20 -11 23 -72z
m-1088 45 c0 -5 -2 -10 -4 -10 -3 0 -8 5 -11 10 -3 6 -1 10 4 10 6 0 11 -4 11
-10z m90 -4 c0 -14 -29 -31 -38 -21 -6 6 18 35 29 35 5 0 9 -6 9 -14z m1169
-96 c0 -36 -4 -72 -9 -80 -7 -10 -9 19 -9 90 1 114 16 105 18 -10z m388 -72
c-3 -8 -6 -5 -6 6 -1 11 2 17 5 13 3 -3 4 -12 1 -19z m-2317 -179 c53 -53 110
-75 169 -64 l36 7 -23 -22 c-61 -58 -183 14 -251 147 -11 23 -21 53 -20 65 0
15 8 3 21 -31 13 -34 39 -73 68 -102z m-1005 111 c10 -11 16 -20 13 -20 -3 0
-13 9 -23 20 -10 11 -16 20 -13 20 3 0 13 -9 23 -20z m1332 -46 c12 -8 26 -30
32 -49 11 -40 4 -105 -11 -105 -6 0 -7 7 -4 16 9 23 -12 97 -32 112 -9 6 -38
12 -65 12 -34 0 -47 4 -45 12 10 28 81 29 125 2z m1091 14 c21 -21 13 -28 -34
-28 -51 0 -84 -14 -84 -35 0 -8 -4 -15 -10 -15 -33 0 30 77 68 83 15 2 32 5
38 6 5 0 15 -4 22 -11z m-2278 -135 c0 -11 -68 57 -102 102 -20 26 -7 16 36
-27 36 -37 66 -71 66 -75z m2563 122 c-3 -9 -8 -14 -10 -11 -3 3 -2 9 2 15 9
16 15 13 8 -4z m-35 -60 c-28 -48 -79 -86 -136 -101 -53 -13 -59 -11 -97 34
l-28 33 42 -22 c64 -33 134 -14 200 55 19 20 36 36 38 36 1 0 -7 -16 -19 -35z
m1623 8 c-21 -35 -40 -55 -48 -50 -5 3 -27 0 -49 -8 -21 -8 -55 -14 -74 -14
-32 1 -31 2 15 13 28 7 75 26 105 43 30 17 56 31 58 32 1 0 -2 -7 -7 -16z
m-4896 -22 c26 -16 65 -33 87 -36 22 -4 36 -11 31 -16 -6 -6 -141 32 -147 43
-1 2 -8 11 -15 21 -19 24 -9 21 44 -12z m131 -128 c-6 -6 -76 30 -76 38 0 5
18 -2 40 -13 22 -12 38 -23 36 -25z m4644 23 c-22 -20 -60 -30 -60 -15 0 7 3
9 6 6 4 -3 16 0 28 8 26 19 45 19 26 1z m-3890 -67 c79 -67 195 -153 281 -208
35 -23 59 -41 53 -41 -39 0 -414 284 -414 313 0 8 3 8 8 2 4 -5 36 -35 72 -66z
m3756 -127 c9 -19 14 -35 12 -38 -6 -5 -78 106 -78 120 1 15 47 -42 66 -82z
m-1979 -159 c-3 -10 -5 -4 -5 12 0 17 2 24 5 18 2 -7 2 -21 0 -30z m953 33 c0
-6 -92 -57 -97 -53 -1 2 18 16 45 30 51 28 52 29 52 23z m-2197 -91 c21 -10
36 -20 33 -22 -5 -5 -166 75 -166 82 0 3 21 -5 48 -18 26 -14 64 -32 85 -42z
m2017 -5 c-8 -5 -19 -10 -25 -10 -5 0 -3 5 5 10 8 5 20 10 25 10 6 0 3 -5 -5
-10z m-70 -30 c-8 -5 -19 -10 -25 -10 -5 0 -3 5 5 10 8 5 20 10 25 10 6 0 3
-5 -5 -10z m-44 -19 c-7 -11 -205 -75 -211 -69 -3 3 41 21 97 40 119 40 121
41 114 29z m-1676 -41 c18 -12 2 -12 -25 0 -13 6 -15 9 -5 9 8 0 22 -4 30 -9z
m65 -20 c13 -6 15 -9 5 -9 -8 0 -22 4 -30 9 -18 12 -2 12 25 0z m2105 -25
c-42 -50 -497 -272 -517 -251 -7 7 24 23 87 45 83 29 298 136 370 183 59 39
80 47 60 23z m-1993 -11 c-3 -3 -12 -4 -19 -1 -8 3 -5 6 6 6 11 1 17 -2 13 -5z
m1058 -34 c-27 -12 -35 -12 -35 0 0 6 12 10 28 9 24 0 25 -1 7 -9z m-1615 -70
c36 -18 112 -53 170 -76 110 -46 120 -55 29 -28 -54 16 -287 130 -324 159 -24
18 27 -4 125 -55z m1483 53 c-7 -2 -19 -2 -25 0 -7 3 -2 5 12 5 14 0 19 -2 13
-5z m537 -193 c0 -5 -9 -10 -20 -10 -11 0 -20 5 -20 10 0 6 9 10 20 10 11 0
20 -4 20 -10z m-1573 -31 c60 -18 125 -34 146 -36 20 -3 37 -9 37 -14 0 -12
-8 -12 -87 7 -87 20 -195 54 -207 65 -15 14 -5 12 111 -22z m1398 -19 c-3 -5
-13 -10 -21 -10 -8 0 -12 5 -9 10 3 6 13 10 21 10 8 0 12 -4 9 -10z m-895 -77
c110 -8 101 -16 -12 -11 -64 2 -102 9 -110 17 -11 11 -8 12 17 7 17 -4 64 -10
105 -13z m514 -3 c-20 -8 -224 -16 -254 -9 -16 3 132 14 220 16 39 1 49 -1 34
-7z"/>
<path d="M3525 6590 c10 -11 20 -20 23 -20 3 0 -3 9 -13 20 -10 11 -20 20 -23
20 -3 0 3 -9 13 -20z"/>
<path d="M2745 6260 c-3 -5 -1 -10 4 -10 6 0 11 5 11 10 0 6 -2 10 -4 10 -3 0
-8 -4 -11 -10z"/>
<path d="M3257 6174 c-11 -14 -16 -28 -12 -32 8 -8 35 26 35 45 0 18 -2 16
-23 -13z"/>
<path d="M2795 6105 c-16 -13 -26 -24 -22 -25 15 0 67 31 67 40 0 16 -13 12
-45 -15z"/>
<path d="M3312 6101 c-11 -7 -11 -9 1 -14 16 -6 27 0 27 15 0 10 -11 10 -28
-1z"/>
<path d="M3650 6090 c0 -5 5 -10 10 -10 6 0 10 5 10 10 0 6 -4 10 -10 10 -5 0
-10 -4 -10 -10z"/>
<path d="M3250 6080 c0 -5 4 -10 9 -10 6 0 13 5 16 10 3 6 -1 10 -9 10 -9 0
-16 -4 -16 -10z"/>
<path d="M2773 6028 c-14 -7 -23 -20 -23 -34 0 -12 -6 -24 -12 -27 -7 -2 -10
-7 -7 -10 3 -4 19 6 35 21 17 15 46 35 65 44 l34 17 -35 0 c-19 0 -45 -5 -57
-11z"/>
<path d="M2630 6000 c0 -5 5 -10 10 -10 6 0 10 5 10 10 0 6 -4 10 -10 10 -5 0
-10 -4 -10 -10z"/>
<path d="M2485 5992 c-49 -3 -91 -22 -48 -22 11 0 26 -6 32 -14 16 -19 58 -8
65 17 3 12 4 21 3 22 -1 0 -24 -1 -52 -3z"/>
<path d="M4200 5971 c0 -6 9 -15 21 -21 18 -10 20 -9 17 7 -3 19 -38 32 -38
14z"/>
<path d="M2685 5950 c3 -5 8 -10 11 -10 2 0 4 5 4 10 0 6 -5 10 -11 10 -5 0
-7 -4 -4 -10z"/>
<path d="M4435 5880 c3 -5 12 -10 20 -10 8 0 17 5 20 10 4 6 -5 10 -20 10 -15
0 -24 -4 -20 -10z"/>
<path d="M2170 5825 c7 -9 15 -13 17 -11 7 7 -7 26 -19 26 -6 0 -6 -6 2 -15z"/>
<path d="M4535 5830 c-3 -5 -1 -10 4 -10 6 0 11 5 11 10 0 6 -2 10 -4 10 -3 0
-8 -4 -11 -10z"/>
<path d="M2200 5776 c0 -15 38 -29 53 -19 5 3 -1 12 -14 19 -31 17 -39 17 -39
0z"/>
<path d="M4925 5711 c-3 -5 -1 -12 5 -16 5 -3 10 1 10 9 0 18 -6 21 -15 7z"/>
<path d="M1968 5583 c6 -2 18 -2 25 0 6 3 1 5 -13 5 -14 0 -19 -2 -12 -5z"/>
<path d="M1926 5534 c-22 -21 -20 -27 4 -14 11 6 20 15 20 20 0 14 -6 12 -24
-6z"/>
<path d="M5060 5520 c0 -5 5 -10 11 -10 5 0 7 5 4 10 -3 6 -8 10 -11 10 -2 0
-4 -4 -4 -10z"/>
<path d="M5217 5502 c-22 -24 -24 -50 -2 -32 8 7 13 16 10 20 -3 5 1 10 7 13
7 2 10 7 7 11 -3 3 -13 -2 -22 -12z"/>
<path d="M5140 5470 c0 -5 5 -10 11 -10 5 0 7 5 4 10 -3 6 -8 10 -11 10 -2 0
-4 -4 -4 -10z"/>
<path d="M5400 5276 c0 -9 5 -16 10 -16 6 0 10 4 10 9 0 6 -4 13 -10 16 -5 3
-10 -1 -10 -9z"/>
<path d="M5735 4910 c-3 -5 1 -10 10 -10 9 0 13 5 10 10 -3 6 -8 10 -10 10 -2
0 -7 -4 -10 -10z"/>
<path d="M5790 4820 c0 -5 6 -10 14 -10 8 0 18 5 21 10 3 6 -3 10 -14 10 -12
0 -21 -4 -21 -10z"/>
<path d="M5766 4781 c-4 -7 -5 -15 -2 -18 9 -9 19 4 14 18 -4 11 -6 11 -12 0z"/>
<path d="M5812 4774 c2 -11 11 -20 22 -22 13 -3 17 1 14 14 -2 11 -11 20 -22
22 -13 3 -17 -1 -14 -14z"/>
<path d="M5810 4650 c0 -5 5 -10 10 -10 6 0 10 5 10 10 0 6 -4 10 -10 10 -5 0
-10 -4 -10 -10z"/>
<path d="M5904 4609 c-9 -16 12 -33 31 -25 14 5 15 9 5 21 -15 18 -26 19 -36
4z"/>
<path d="M5820 4500 c0 -5 5 -10 10 -10 6 0 10 5 10 10 0 6 -4 10 -10 10 -5 0
-10 -4 -10 -10z"/>
<path d="M5867 4462 c-6 -9 31 -57 39 -50 2 3 0 17 -5 32 -10 25 -25 34 -34
18z"/>
<path d="M5890 4390 c0 -5 5 -10 10 -10 6 0 10 5 10 10 0 6 -4 10 -10 10 -5 0
-10 -4 -10 -10z"/>
<path d="M6020 4119 c0 -5 5 -7 10 -4 6 3 10 8 10 11 0 2 -4 4 -10 4 -5 0 -10
-5 -10 -11z"/>
<path d="M6081 4111 c-10 -6 -9 -10 3 -14 8 -3 18 -2 21 3 8 13 -9 20 -24 11z"/>
<path d="M6081 4038 c-32 -33 -39 -48 -21 -48 6 0 10 -7 10 -15 0 -8 7 -15 15
-15 17 0 17 30 0 42 -6 5 -3 8 6 8 21 0 53 36 44 49 -10 17 -21 13 -54 -21z"/>
<path d="M6041 3934 c0 -11 3 -14 6 -6 3 7 2 16 -1 19 -3 4 -6 -2 -5 -13z"/>
<path d="M6035 3900 c-3 -6 1 -7 9 -4 18 7 21 14 7 14 -6 0 -13 -4 -16 -10z"/>
<path d="M6138 3793 c7 -3 16 -2 19 1 4 3 -2 6 -13 5 -11 0 -14 -3 -6 -6z"/>
<path d="M6135 3719 c-4 -6 -4 -13 -1 -16 3 -4 6 -1 6 5 0 6 8 13 18 15 15 4
15 5 0 6 -9 0 -20 -4 -23 -10z"/>
<path d="M6200 3640 c0 -5 5 -10 11 -10 5 0 7 5 4 10 -3 6 -8 10 -11 10 -2 0
-4 -4 -4 -10z"/>
<path d="M3478 5833 c-24 -50 -39 -69 -55 -71 -27 -4 -30 -17 -7 -26 23 -9 54
12 54 37 0 12 9 35 19 51 18 26 20 27 30 10 9 -17 10 -17 11 -2 0 9 -5 20 -10
23 -6 4 -8 15 -5 26 13 39 -4 17 -37 -48z"/>
<path d="M3356 5573 c-11 -11 -6 -23 9 -23 8 0 15 4 15 9 0 13 -16 22 -24 14z"/>
<path d="M3305 5520 c3 -5 8 -10 11 -10 2 0 4 5 4 10 0 6 -5 10 -11 10 -5 0
-7 -4 -4 -10z"/>
<path d="M3322 5491 c4 -13 18 -16 19 -4 0 4 -5 9 -11 12 -7 2 -11 -2 -8 -8z"/>
<path d="M3710 5430 c0 -5 5 -10 11 -10 5 0 7 5 4 10 -3 6 -8 10 -11 10 -2 0
-4 -4 -4 -10z"/>
<path d="M4383 5306 c-18 -11 -33 -25 -33 -29 0 -8 23 4 54 28 31 24 14 25
-21 1z"/>
<path d="M2829 5297 c6 -8 9 -17 6 -21 -3 -3 0 -2 6 3 12 10 4 31 -13 31 -7 0
-7 -4 1 -13z"/>
<path d="M4190 5290 c0 -5 5 -10 10 -10 6 0 10 5 10 10 0 6 -4 10 -10 10 -5 0
-10 -4 -10 -10z"/>
<path d="M2895 5280 c3 -5 10 -10 16 -10 5 0 9 5 9 10 0 6 -7 10 -16 10 -8 0
-12 -4 -9 -10z"/>
<path d="M3362 5233 c-27 -26 -64 -61 -81 -76 -36 -33 -39 -52 -9 -60 40 -11
101 45 91 84 -5 19 -3 21 25 14 26 -5 33 -2 48 20 13 20 15 31 8 43 -18 28
-30 24 -82 -25z"/>
<path d="M3553 5273 c-7 -2 -13 -9 -13 -15 0 -14 43 -6 48 10 4 12 -12 15 -35
5z"/>
<path d="M2700 5250 c11 -21 22 -25 33 -13 9 9 -12 33 -30 33 -11 0 -11 -4 -3
-20z"/>
<path d="M4305 5261 c-10 -17 12 -21 25 -6 10 12 10 15 -3 15 -9 0 -18 -4 -22
-9z"/>
<path d="M3622 5191 c4 -13 18 -16 19 -4 0 4 -5 9 -11 12 -7 2 -11 -2 -8 -8z"/>
<path d="M2530 5160 c0 -5 7 -10 15 -10 8 0 15 5 15 10 0 6 -7 10 -15 10 -8 0
-15 -4 -15 -10z"/>
<path d="M4010 5145 c7 -9 15 -13 17 -11 7 7 -7 26 -19 26 -6 0 -6 -6 2 -15z"/>
<path d="M3215 5110 c-3 -5 1 -10 9 -10 9 0 16 5 16 10 0 6 -4 10 -9 10 -6 0
-13 -4 -16 -10z"/>
<path d="M2522 5048 c6 -16 36 -34 44 -26 3 4 4 14 1 23 -7 17 -51 21 -45 3z"/>
<path d="M3177 5033 c5 -13 2 -15 -15 -11 -15 4 -22 2 -22 -8 0 -20 27 -29 45
-14 19 16 19 36 1 43 -11 4 -13 1 -9 -10z"/>
<path d="M3000 4979 c0 -5 5 -7 10 -4 6 3 10 8 10 11 0 2 -4 4 -10 4 -5 0 -10
-5 -10 -11z"/>
<path d="M2495 4969 c-8 -12 33 -59 52 -59 21 0 15 30 -9 51 -27 21 -34 23
-43 8z"/>
<path d="M4467 4823 c-26 -7 -15 -28 14 -28 15 0 25 7 27 18 3 17 -6 19 -41
10z"/>
<path d="M2620 4760 c0 -5 4 -10 9 -10 6 0 13 5 16 10 3 6 -1 10 -9 10 -9 0
-16 -4 -16 -10z"/>
<path d="M5510 5606 c0 -8 5 -18 10 -21 6 -3 10 1 10 9 0 8 -4 18 -10 21 -5 3
-10 -1 -10 -9z"/>
<path d="M1478 5197 c-29 -23 -35 -41 -19 -51 5 -3 18 12 29 34 11 22 19 40
18 40 0 -1 -13 -11 -28 -23z"/>
<path d="M1266 4795 c4 -8 10 -15 15 -15 4 0 6 7 3 15 -4 8 -10 15 -15 15 -4
0 -6 -7 -3 -15z"/>
<path d="M1190 5221 c0 -5 7 -14 15 -21 13 -10 15 -9 15 9 0 12 -6 21 -15 21
-8 0 -15 -4 -15 -9z"/>
<path d="M4760 5070 c0 -5 4 -10 9 -10 6 0 13 5 16 10 3 6 -1 10 -9 10 -9 0
-16 -4 -16 -10z"/>
<path d="M4766 5042 c-3 -6 -1 -14 5 -17 15 -10 25 3 12 16 -7 7 -13 7 -17 1z"/>
<path d="M3565 4851 c-3 -5 -2 -12 3 -15 5 -3 9 1 9 9 0 17 -3 19 -12 6z"/>
<path d="M3375 4750 c4 -6 11 -8 16 -5 14 9 11 15 -7 15 -8 0 -12 -5 -9 -10z"/>
<path d="M3368 4723 c7 -3 16 -2 19 1 4 3 -2 6 -13 5 -11 0 -14 -3 -6 -6z"/>
<path d="M3570 4711 c0 -10 19 -25 25 -20 1 2 -3 10 -11 17 -8 7 -14 8 -14 3z"/>
<path d="M3420 4700 c-9 -6 -10 -10 -3 -10 6 0 15 5 18 10 8 12 4 12 -15 0z"/>
<path d="M3320 4607 c0 -3 12 -12 26 -22 15 -9 23 -12 20 -6 -7 11 -46 35 -46
28z"/>
<path d="M3347 4549 c7 -7 15 -10 18 -7 3 3 -2 9 -12 12 -14 6 -15 5 -6 -5z"/>
<path d="M3073 3684 c-28 -54 -64 -165 -57 -176 17 -29 79 -98 87 -98 5 0 7 9
4 19 -3 12 0 18 7 15 7 -3 22 6 34 19 l23 24 -32 81 c-17 45 -33 82 -35 82 -3
0 -10 -14 -16 -31 -6 -16 -12 -28 -15 -26 -2 3 3 22 11 42 10 23 13 43 7 53
-7 13 -10 13 -18 -4z m-12 -137 c-9 -22 -6 -32 16 -59 l26 -33 -32 30 c-29 29
-31 33 -20 63 6 18 13 31 15 29 3 -2 0 -16 -5 -30z"/>
<path d="M4995 2690 c-4 -6 5 -10 19 -10 14 0 26 5 26 10 0 6 -9 10 -19 10
-11 0 -23 -4 -26 -10z"/>
<path d="M4060 2155 c-17 -10 -20 -14 -9 -15 9 0 22 7 29 15 15 18 12 18 -20
0z"/>
<path d="M4065 2115 c-10 -9 -34 -14 -51 -13 -34 2 -64 -16 -64 -38 0 -21 31
-17 58 9 14 12 22 16 18 10 -10 -18 12 -16 55 5 20 9 34 23 32 30 -6 16 -23
15 -48 -3z"/>
<path d="M3917 2024 c-8 -8 1 -24 14 -24 5 0 9 7 9 15 0 15 -12 20 -23 9z"/>
<path d="M3818 1963 c7 -3 16 -2 19 1 4 3 -2 6 -13 5 -11 0 -14 -3 -6 -6z"/>
<path d="M3595 2230 c3 -5 8 -10 11 -10 2 0 4 5 4 10 0 6 -5 10 -11 10 -5 0
-7 -4 -4 -10z"/>
</g>
</svg>
